#!OML:ASF H:\Not Pregnant\Project 1\Capture day 1\Session 1\non-pregnant.ASF
:FULLY-SPECIFIED
:DEGREES
4184
root 8.899 15.5326 29.3696 172.327 -78.1549 -161.585
lowerback -0.372686 1.51139 2.84066
upperback -7.24247 1.90308 -0.304966
thorax -7.2388 0.662328 -2.00611
lowerneck 11.8968 -6.43801 -30.6283
upperneck -1.91348 -15.0244 41.8258
head 3.78044 -9.59404 22.2221
rclavicle -1.46852e-014 -3.97569e-016
rhumerus -52.2997 -30.9815 -62.92
rradius 21.2614
rwrist 26.7618
rhand -1.1319 -6.91896
rfingers 7.12502
rthumb 24.5058 -35.3711
lclavicle -1.46852e-014 -3.97569e-016
lhumerus -48.6252 -1.21884 87.9586
lradius 35.1785
lwrist 21.0512
lhand -3.76471 -2.94648
lfingers 7.12502
lthumb 21.9799 25.8247
rfemur -37.5068 1.07618 16.9781
rtibia 36.8111
rfoot -17.8778 -6.11388
rtoes -18.8696
lfemur -25.5756 7.16811 -21.1607
ltibia 38.1422
lfoot -22.9601 4.04423
ltoes -16.0355
4185
root 8.93011 15.5413 29.3935 172.416 -78.1658 -161.565
lowerback -0.312785 1.51602 2.65238
upperback -7.22501 1.9069 -0.289624
thorax -7.25995 0.677193 -1.88664
lowerneck 11.9412 -6.45416 -30.6011
upperneck -2.17556 -15.0001 41.9408
head 3.70733 -9.59815 22.2969
rclavicle -2.48481e-016 1.27222e-014
rhumerus -52.1156 -30.6668 -63.3293
rradius 21.3428
rwrist 25.0147
rhand 0.499947 -8.32774
rfingers 7.12502
rthumb 26.0691 -36.5588
lclavicle -2.48481e-016 1.27222e-014
lhumerus -48.3586 -3.07035 89.1161
lradius 35.3174
lwrist 14.7225
lhand -2.22844 -4.95754
lfingers 7.12502
lthumb 23.4543 23.6329
rfemur -37.734 1.45816 16.8261
rtibia 36.8084
rfoot -18.0795 -5.6113
rtoes -18.5645
lfemur -25.7489 7.34382 -21.2725
ltibia 37.9554
lfoot -22.9601 3.89803
ltoes -16.0124
4186
root 8.96082 15.5498 29.4177 172.66 -78.1835 -161.679
lowerback -0.269567 1.52493 2.44392
upperback -7.21553 1.91398 -0.282489
thorax -7.2803 0.694333 -1.76433
lowerneck 11.9848 -6.47397 -30.5782
upperneck -2.44126 -14.9807 42.0552
head 3.63634 -9.60484 22.3721
rclavicle 8.57259e-015 3.97569e-015
rhumerus -51.7517 -30.0759 -64.009
rradius 21.548
rwrist 22.3518
rhand 1.34422 -9.77812
rfingers 7.12502
rthumb 26.8773 -37.8875
lclavicle 8.57259e-015 3.97569e-015
lhumerus -48.1267 -4.95694 90.1524
lradius 35.4618
lwrist 9.21687
lhand -1.57262 -7.24038
lfingers 7.12502
lthumb 24.0832 21.2683
rfemur -38.0146 1.80906 16.6482
rtibia 36.8492
rfoot -18.3015 -4.97541
rtoes -18.4277
lfemur -25.9533 7.53614 -21.4231
ltibia 37.7759
lfoot -22.9634 3.7511
ltoes -16.1852
4187
root 8.9911 15.5581 29.4412 172.938 -78.2088 -161.806
lowerback -0.246176 1.53447 2.22496
upperback -7.21365 1.92029 -0.273944
thorax -7.29792 0.711532 -1.63418
lowerneck 12.0321 -6.49379 -30.5596
upperneck -2.71136 -14.9618 42.1704
head 3.56444 -9.6125 22.4502
rclavicle -3.2228e-014 3.57812e-015
rhumerus -51.2286 -29.2069 -64.9473
rradius 21.8432
rwrist 19.0461
rhand 1.51831 -10.9517
rfingers 7.12502
rthumb 27.0438 -39.0353
lclavicle -3.2228e-014 3.57812e-015
lhumerus -47.9577 -6.97371 91.2236
lradius 35.7305
lwrist 5.55579
lhand -1.80929 -9.24894
lfingers 7.12502
lthumb 23.8563 19.2896
rfemur -38.3447 2.17929 16.4582
rtibia 36.9416
rfoot -18.5138 -4.25496
rtoes -18.4635
lfemur -26.1882 7.73935 -21.5815
ltibia 37.6029
lfoot -22.9737 3.57189
ltoes -16.3901
4188
root 9.02104 15.5658 29.464 173.229 -78.2505 -161.93
lowerback -0.237875 1.53846 2.00314
upperback -7.21498 1.91821 -0.265458
thorax -7.31086 0.724676 -1.50164
lowerneck 12.0828 -6.51101 -30.5452
upperneck -2.98639 -14.9395 42.2879
head 3.49003 -9.61937 22.5335
rclavicle -3.40419e-015 -2.78299e-015
rhumerus -50.6109 -28.1363 -66.0326
rradius 22.1919
rwrist 15.5856
rhand 0.802517 -11.8775
rfingers 7.12502
rthumb 26.3588 -40.0656
lclavicle -3.40419e-015 -2.78299e-015
lhumerus -47.8869 -9.16569 92.4236
lradius 36.2013
lwrist 4.30816
lhand -2.64062 -10.8306
lfingers 7.12502
lthumb 23.0588 17.8098
rfemur -38.7145 2.53106 16.2797
rtibia 37.0926
rfoot -18.6902 -3.48589
rtoes -18.805
lfemur -26.4487 7.95531 -21.7477
ltibia 37.4408
lfoot -22.9906 3.36731
ltoes -16.7098
4189
root 9.05089 15.5725 29.4861 173.595 -78.321 -162.125
lowerback -0.236235 1.53313 1.76307
upperback -7.21875 1.90221 -0.262218
thorax -7.32356 0.731819 -1.36345
lowerneck 12.1395 -6.52398 -30.5308
upperneck -3.26873 -14.9098 42.4054
head 3.40919 -9.62328 22.62
rclavicle -4.67144e-015 2.78299e-015
rhumerus -49.9824 -26.9762 -67.1229
rradius 22.5659
rwrist 12.5198
rhand -0.376993 -12.4499
rfingers 7.12502
rthumb 25.2292 -40.8021
lclavicle -4.67144e-015 2.78299e-015
lhumerus -47.9521 -11.5115 93.7748
lradius 36.9132
lwrist 5.45164
lhand -3.81854 -12.0048
lfingers 7.12502
lthumb 21.9282 16.7724
rfemur -39.1154 2.81598 16.1144
rtibia 37.3128
rfoot -18.8305 -2.66149
rtoes -19.3644
lfemur -26.7302 8.17307 -21.9381
ltibia 37.2948
lfoot -23.0191 3.12233
ltoes -17.0503
4190
root 9.08029 15.5777 29.5076 173.998 -78.4187 -162.367
lowerback -0.230198 1.52017 1.51469
upperback -7.21739 1.87574 -0.263071
thorax -7.33376 0.734398 -1.22434
lowerneck 12.2035 -6.53387 -30.5191
upperneck -3.56132 -14.8743 42.5229
head 3.32194 -9.62506 22.7103
rclavicle 2.01518e-014 1.94809e-014
rhumerus -49.395 -25.8086 -68.1204
rradius 22.9267
rwrist 10.3178
rhand -1.7878 -12.5763
rfingers 7.12502
rthumb 23.8769 -41.1121
lclavicle 2.01518e-014 1.94809e-014
lhumerus -48.1422 -13.88 95.1859
lradius 37.8446
lwrist 8.45671
lhand -5.04914 -12.9165
lfingers 7.12502
lthumb 20.7462 15.9945
rfemur -39.5218 3.01957 15.982
rtibia 37.6138
rfoot -18.9457 -1.81456
rtoes -20.0834
lfemur -27.0105 8.37192 -22.1414
ltibia 37.1688
lfoot -23.0648 2.84619
ltoes -17.363
4191
root 9.10907 15.5811 29.5283 174.443 -78.5369 -162.67
lowerback -0.2152 1.50593 1.25784
upperback -7.20963 1.84705 -0.275754
thorax -7.34216 0.736265 -1.0929
lowerneck 12.284 -6.54336 -30.4888
upperneck -3.86949 -14.8352 42.6412
head 3.22361 -9.62703 22.7984
rclavicle 3.3371e-014 -1.55052e-014
rhumerus -48.8906 -24.7285 -68.9528
rradius 23.2299
rwrist 9.34133
rhand -3.19483 -12.2387
rfingers 7.12502
rthumb 22.527 -40.9446
lclavicle 3.3371e-014 -1.55052e-014
lhumerus -48.4221 -16.157 96.53
lradius 38.9303
lwrist 12.5337
lhand -6.1104 -13.7298
lfingers 7.12502
lthumb 19.7262 15.2893
rfemur -39.9221 3.12854 15.8933
rtibia 38.0044
rfoot -19.056 -0.958384
rtoes -20.8579
lfemur -27.28 8.55675 -22.3569
ltibia 37.0648
lfoot -23.1304 2.56612
ltoes -17.7632
4192
root 9.13744 15.5826 29.548 174.903 -78.6755 -163.01
lowerback -0.1876 1.4846 0.987258
upperback -7.19458 1.80872 -0.291114
thorax -7.35051 0.734375 -0.956235
lowerneck 12.3694 -6.54958 -30.4508
upperneck -4.1825 -14.7888 42.7567
head 3.11832 -9.62562 22.8852
rclavicle -1.51573e-015 -5.96354e-015
rhumerus -48.4606 -23.7511 -69.6051
rradius 23.4421
rwrist 9.75799
rhand -4.46005 -11.5003
rfingers 7.12502
rthumb 21.3121 -40.3484
lclavicle -1.51573e-015 -5.96354e-015
lhumerus -48.7298 -18.2138 97.6913
lradius 40.0797
lwrist 16.7736
lhand -6.88112 -14.4485
lfingers 7.12502
lthumb 18.9852 14.645
rfemur -40.3054 3.17227 15.8446
rtibia 38.4835
rfoot -19.1661 -0.131905
rtoes -21.5468
lfemur -27.5375 8.73147 -22.5778
ltibia 36.9856
lfoot -23.2257 2.3046
ltoes -18.3477
4193
root 9.16581 15.5827 29.566 175.303 -78.8356 -163.306
lowerback -0.147542 1.45709 0.711884
upperback -7.1739 1.7622 -0.307185
thorax -7.36017 0.728889 -0.817362
lowerneck 12.4584 -6.55497 -30.3995
upperneck -4.49738 -14.7398 42.8737
head 3.00948 -9.62402 22.9715
rclavicle 2.24875e-014 1.63003e-014
rhumerus -48.1001 -22.9099 -70.0696
rradius 23.5481
rwrist 11.5604
rhand -5.53916 -10.4377
rfingers 7.12502
rthumb 20.2753 -39.3995
lclavicle 2.24875e-014 1.63003e-014
lhumerus -49.0232 -20.0378 98.6343
lradius 41.1841
lwrist 20.5174
lhand -7.45613 -15.1026
lfingers 7.12502
lthumb 18.4321 14.0441
rfemur -40.666 3.19029 15.8387
rtibia 39.043
rfoot -19.2794 0.619845
rtoes -22.0784
lfemur -27.7901 8.91929 -22.7863
ltibia 36.9325
lfoot -23.3572 2.02513
ltoes -19.0756
4194
root 9.19411 15.5817 29.582 175.572 -79.0175 -163.483
lowerback -0.0997344 1.42088 0.443559
upperback -7.1474 1.70473 -0.31921
thorax -7.36792 0.71785 -0.677574
lowerneck 12.5481 -6.55934 -30.3379
upperneck -4.80807 -14.6898 42.9925
head 2.90025 -9.62278 23.0582
rclavicle 2.43511e-015 1.23246e-014
rhumerus -47.7953 -22.2251 -70.3369
rradius 23.553
rwrist 14.6147
rhand -6.41076 -9.11432
rfingers 7.12502
rthumb 19.4374 -38.1628
lclavicle 2.43511e-015 1.23246e-014
lhumerus -49.2668 -21.6319 99.3526
lradius 42.1504
lwrist 23.3157
lhand -7.94668 -15.673
lfingers 7.12502
lthumb 17.9601 13.5177
rfemur -40.9975 3.19288 15.8832
rtibia 39.6672
rfoot -19.3969 1.2863
rtoes -22.4336
lfemur -28.0408 9.12679 -22.9681
ltibia 36.9076
lfoot -23.5285 1.72041
ltoes -19.9245
4195
root 9.22259 15.5804 29.5959 175.634 -79.2259 -163.461
lowerback -0.0472385 1.37247 0.191199
upperback -7.11813 1.63209 -0.320657
thorax -7.37508 0.698735 -0.53468
lowerneck 12.6366 -6.56213 -30.2689
upperneck -5.11024 -14.6385 43.1107
head 2.79196 -9.62129 23.1441
rclavicle -1.47349e-014 1.23246e-014
rhumerus -47.532 -21.6913 -70.4191
rradius 23.4921
rwrist 18.6424
rhand -7.07276 -7.6121
rfingers 7.12502
rthumb 18.8008 -36.7235
lclavicle -1.47349e-014 1.23246e-014
lhumerus -49.4491 -23.0253 99.8726
lradius 42.9318
lwrist 25.0304
lhand -8.48352 -16.1436
lfingers 7.12502
lthumb 17.4436 13.0937
rfemur -41.296 3.20989 15.9757
rtibia 40.3377
rfoot -19.5043 1.85452
rtoes -22.5583
lfemur -28.2965 9.35204 -23.1057
ltibia 36.9101
lfoot -23.7394 1.34514
ltoes -20.7395
4196
root 9.25088 15.5789 29.608 175.447 -79.4571 -163.193
lowerback 0.00266565 1.30828 -0.0328098
upperback -7.08641 1.54002 -0.309251
thorax -7.37729 0.668703 -0.392727
lowerneck 12.7215 -6.55803 -30.2001
upperneck -5.39373 -14.5823 43.231
head 2.68727 -9.61792 23.2358
rclavicle 3.72721e-016 2.54444e-014
rhumerus -47.2885 -21.2713 -70.3623
rradius 23.4087
rwrist 23.2685
rhand -7.53876 -6.01634
rfingers 7.12502
rthumb 18.3526 -35.1706
lclavicle 3.72721e-016 2.54444e-014
lhumerus -49.5541 -24.2199 100.203
lradius 43.5118
lwrist 25.7819
lhand -9.05667 -16.5202
lfingers 7.12502
lthumb 16.8919 12.7652
rfemur -41.5576 3.22458 16.133
rtibia 41.0366
rfoot -19.6075 2.29045
rtoes -22.6384
lfemur -28.5563 9.58429 -23.1941
ltibia 36.9371
lfoot -23.9799 0.92942
ltoes -21.5839
4197
root 9.27867 15.5773 29.6187 175.032 -79.7102 -162.699
lowerback 0.0463544 1.23063 -0.225383
upperback -7.05273 1.43153 -0.289214
thorax -7.37254 0.628874 -0.257948
lowerneck 12.8038 -6.54825 -30.1342
upperneck -5.65944 -14.5235 43.3533
head 2.58699 -9.61377 23.3331
rclavicle 8.97016e-015 3.97569e-016
rhumerus -47.0473 -20.9149 -70.2331
rradius 23.3509
rwrist 28.0682
rhand -7.84791 -4.42007
rfingers 7.12502
rthumb 18.0552 -33.602
lclavicle 8.97016e-015 3.97569e-016
lhumerus -49.5894 -25.2551 100.38
lradius 43.9273
lwrist 25.8868
lhand -9.65358 -16.7664
lfingers 7.12502
lthumb 16.3172 12.5671
rfemur -41.7814 3.21781 16.3506
rtibia 41.7497
rfoot -19.7102 2.60779
rtoes -22.7071
lfemur -28.817 9.80256 -23.2398
ltibia 36.9825
lfoot -24.2419 0.48986
ltoes -22.4238
4198
root 9.30543 15.5759 29.6285 174.412 -79.9816 -162.011
lowerback 0.0842886 1.13908 -0.392315
upperback -7.01355 1.30624 -0.257682
thorax -7.35738 0.57959 -0.124092
lowerneck 12.8798 -6.53197 -30.0847
upperneck -5.90331 -14.4629 43.4761
head 2.4947 -9.6085 23.4391
rclavicle 2.01145e-014 -8.74653e-015
rhumerus -46.7797 -20.5284 -70.1228
rradius 23.3536
rwrist 32.6017
rhand -8.02288 -2.94407
rfingers 7.12502
rthumb 17.8868 -32.1415
lclavicle 2.01145e-014 -8.74653e-015
lhumerus -49.556 -26.141 100.434
lradius 44.2314
lwrist 25.7518
lhand -10.2244 -16.8315
lfingers 7.12502
lthumb 15.7676 12.5462
rfemur -41.9573 3.1782 16.62
rtibia 42.4668
rfoot -19.8179 2.81859
rtoes -22.7839
lfemur -29.0625 9.97147 -23.2487
ltibia 37.0379
lfoot -24.5123 0.0858427
ltoes -23.2966
